<?xml version="1.0" encoding="utf-8"?>
<!-- Generator: Adobe Illustrator 22.1.0, SVG Export Plug-In . SVG Version: 6.00 Build 0)  -->
<svg version="1.1" id="Layer_1" xmlns="http://www.w3.org/2000/svg" xmlns:xlink="http://www.w3.org/1999/xlink" x="0px" y="0px"
	 viewBox="0 0 105.3 94.3" style="enable-background:new 0 0 105.3 94.3;" xml:space="preserve">
<style type="text/css">
	.st0{fill:#343A40;}
</style>
<path class="st0" d="M70.9,2.6H41.9c-7,0-12.7,5.7-12.7,12.7v28.9c0,7,5.7,12.7,12.7,12.7h28.9c7,0,12.7-5.7,12.7-12.7V15.4
	C83.6,8.4,77.9,2.6,70.9,2.6z M70.3,11.7h-2.4c-1,0-1.7,0.2-2.1,0.5s-0.6,0.8-0.6,1.6v25.6c0,2-0.5,3.7-1.5,5.3
	c-1,1.6-2.3,2.9-4.2,3.8c-1.8,1-3.9,1.4-6.3,1.4c-3.2,0-5.7-1-7.7-2.8c-2-1.8-3-4.1-3-6.8c0-2,0.5-3.6,1.5-4.8
	c1.1-1.2,2.2-1.8,3.7-1.8c1.2,0,2.2,0.4,3,1.2c0.7,0.7,1.2,1.8,1.2,3c0,1.1-0.3,1.9-1,2.7c-0.6,0.7-1.4,1.1-2.2,1.1
	c-0.3,0-0.7-0.1-1.4-0.3c-0.5-0.1-0.8-0.2-1-0.2c-0.3,0-0.5,0.1-0.7,0.4c-0.2,0.2-0.3,0.6-0.3,1.2c0,1.4,0.6,2.5,2,3.6
	c1.4,1.1,3,1.6,5,1.6c2.2,0,3.9-0.7,5.3-2.3c1.3-1.6,1.9-3.7,1.9-6.5V13.8c0-0.7-0.2-1.2-0.7-1.6c-0.4-0.3-1.3-0.5-2.4-0.5h-3.5v-2
	h17.5v2H70.3z"/>
</svg>
