<?xml version="1.0" encoding="utf-8"?>
<!-- Generator: Adobe Illustrator 22.1.0, SVG Export Plug-In . SVG Version: 6.00 Build 0)  -->
<svg version="1.1" id="Layer_1" xmlns="http://www.w3.org/2000/svg" xmlns:xlink="http://www.w3.org/1999/xlink" x="0px" y="0px"
	 viewBox="0 0 86 77" style="enable-background:new 0 0 86 77;" xml:space="preserve">
<style type="text/css">
	.st0{fill:#FFFFFF;}
</style>
<path class="st0" d="M51,12.1H23.7c-6.6,0-12,5.4-12,12v27.3c0,6.6,5.4,12,12,12H51c6.6,0,12-5.4,12-12V24.1
	C63,17.5,57.6,12.1,51,12.1z M50.5,20.6h-2.3c-0.9,0-1.6,0.2-2,0.5c-0.4,0.3-0.6,0.8-0.6,1.5v24.1c0,1.9-0.5,3.5-1.4,5
	c-0.9,1.5-2.2,2.7-4,3.6c-1.7,0.9-3.7,1.3-5.9,1.3c-3,0-5.4-0.9-7.3-2.6s-2.8-3.9-2.8-6.4c0-1.9,0.5-3.4,1.4-4.5
	c1-1.1,2.1-1.7,3.5-1.7c1.1,0,2.1,0.4,2.8,1.1c0.7,0.7,1.1,1.7,1.1,2.8c0,1-0.3,1.8-0.9,2.5s-1.3,1-2.1,1c-0.3,0-0.7-0.1-1.3-0.3
	c-0.5-0.1-0.8-0.2-0.9-0.2c-0.3,0-0.5,0.1-0.7,0.4c-0.2,0.2-0.3,0.6-0.3,1.1c0,1.3,0.6,2.4,1.9,3.4c1.3,1,2.8,1.5,4.7,1.5
	c2.1,0,3.7-0.7,5-2.2c1.2-1.5,1.8-3.5,1.8-6.1V22.6c0-0.7-0.2-1.1-0.7-1.5c-0.4-0.3-1.2-0.5-2.3-0.5h-3.3v-1.9h16.5V20.6z"/>
</svg>
